<svg width="79" height="80" viewBox="0 0 79 80" fill="none" xmlns="http://www.w3.org/2000/svg">
<path d="M39.5 45.7332L19.7722 57.1555L0 45.7332L19.7722 34.311L39.5 45.7332Z" fill="#D5B5FF"/>
<path d="M0 45.7334V68.5778L19.7722 80.0001V57.1557L0 45.7334Z" fill="#A965FF"/>
<path d="M39.5 45.7334V68.5778L19.7722 80.0001V57.1557L39.5 45.7334Z" fill="#7101FF"/>
<path d="M79 45.7332L59.2278 57.1555L39.5 45.7332L59.2278 34.311L79 45.7332Z" fill="#D5B5FF"/>
<path d="M39.5 45.7334V68.5778L59.2278 80.0001V57.1557L39.5 45.7334Z" fill="#A965FF"/>
<path d="M79 45.7334V68.5778L59.2278 80.0001V57.1557L79 45.7334Z" fill="#7101FF"/>
<path d="M59.2278 11.4222L39.5 22.8444L19.7722 11.4222L39.5 0L59.2278 11.4222Z" fill="#D5B5FF"/>
<path d="M19.7722 11.4221V34.311L39.5 45.7332V22.8443L19.7722 11.4221Z" fill="#A965FF"/>
<path d="M59.2278 11.4221V34.311L39.5 45.7332V22.8443L59.2278 11.4221Z" fill="#7101FF"/>
</svg>
